<?xml version="1.0" ?><!DOCTYPE svg  PUBLIC '-//W3C//DTD SVG 1.1//EN'  'http://www.w3.org/Graphics/SVG/1.1/DTD/svg11.dtd'><svg enable-background="new 0 0 158.52 155.031" height="155.031px" id="icons" version="1.1" viewBox="0 0 158.52 155.031" width="158.52px" xml:space="preserve" xmlns="http://www.w3.org/2000/svg" xmlns:xlink="http://www.w3.org/1999/xlink"><g><path d="M133.309,142.093c19.884-12.341,15.592-30.321,15.592-62.653c0-20.899,4.463-43.147-8.957-56.616   C126.473,9.303,113.489,9.769,86.247,9.769c-33.89,0-49.828-4.692-61.31,6.999C11.572,30.375,12.116,35.377,11.622,58.637   c-0.224,10.493-5.883,59.307,2.003,71.681c11.917,18.699,34.864,14.469,61.361,14.469   C104.419,144.787,121.658,149.324,133.309,142.093z" fill="#FF0F50"/><path d="M75.115,79.036c0,7.719,0.056,23.53,0.056,24.211c0,1.689,1.047,3.2,3.151,3.2   c1.637,0,3.037-1.083,3.037-3.089c0-0.765,0.063-21.208,0.079-31.157c0.01-5.968,3.043-10.329,8.43-12.206   c5.491-1.913,11.661-0.232,15.152,4.133c1.728,2.161,2.523,4.638,2.516,7.396c-0.01,3.945-0.019,7.89,0.007,11.835   c0.021,3.14,0.987,4.141,4.175,4.159c6.089,0.033,7.178-0.026,13.267-0.015c3.063,0.005,3.162,0.095,3.134,3.209   c-0.059,6.583,0.861,5.692-5.717,5.746c-5.489,0.045-5.978,0.072-11.466,0.019c-8.267-0.079-13.21-5.118-13.232-13.395   c-0.01-3.859,0.049-7.72-0.054-11.577c-0.054-2.026-1.475-3.311-3.246-3.26c-1.686,0.048-2.9,1.265-3.09,3.171   c-0.076,0.765-0.042,1.542-0.042,2.314c-0.002,9.348-0.001,18.696-0.002,28.045c0,0.772,0.012,1.544-0.013,2.315   c-0.223,6.922-5.823,11.985-13.181,11.923c-7.199-0.06-12.727-5.156-12.762-12.038c-0.078-15.437-0.028-30.875-0.035-46.312   c0-0.942,0.057-1.901-0.092-2.824c-0.285-1.767-1.41-2.735-3.204-2.699c-1.667,0.033-2.734,0.961-3.019,2.613   c-0.144,0.837-0.11,1.709-0.111,2.565c-0.007,8.748-0.202,17.501,0.051,26.242c0.238,8.244-6.436,12.936-12.384,13.021   c-6.946,0.1-13.893,0.069-20.839,0.144c-1.618,0.018-2.384-0.562-2.291-2.256c0.085-1.539,0.086-3.09,0.001-4.629   c-0.095-1.733,0.738-2.198,2.33-2.186c6.089,0.045,12.178,0.011,18.267-0.003c4.323-0.01,5.019-0.723,5.021-5.133   c0.005-9.091-0.054-18.182,0.024-27.273c0.056-6.549,5.042-11.542,11.946-12.176c6.518-0.599,12.632,3.669,13.872,9.743   c0.22,1.08,0.248,2.214,0.251,3.323C75.125,63.77,75.115,71.403,75.115,79.036z" fill="#FFFFFF"/><path d="M156.522,60.872c-0.247-8.888-0.489-17.771-0.83-26.657c-0.155-4.029-0.106-8.205-0.922-12.167   c-0.806-3.916-2.465-7.627-4.886-10.811c-4.938-6.493-12.781-9.859-20.804-10.252c-9.086-0.445-18.229-0.233-27.322-0.171   C83.635,0.94,65.517,0.885,47.394,0.869C42.793,0.865,38.193,0.88,33.592,0.93c-2.938,0.032-5.821,0.047-8.712,0.683   c-7.66,1.685-14.667,6.484-18.69,13.264c-2.043,3.443-3.192,7.263-3.323,11.266c-0.112,3.436-0.005,6.892,0.011,10.329   c0.045,9.232,0.134,18.464,0.172,27.697c0.018,4.449-0.055,8.82,0.389,13.25c0.428,4.273-0.106,8.733-0.278,13.017   c-0.36,8.971-0.768,17.943-0.978,26.919c-0.165,7.041-0.387,13.757,2.944,20.198c3.592,6.945,10.195,12.218,17.684,14.39   c4.132,1.198,8.497,1.23,12.76,1.538c4.504,0.325,9.013,0.492,13.524,0.683c8.847,0.375,17.721,0.431,26.575,0.373   c17.073-0.112,34.141-0.293,51.212-0.581c4.042-0.068,8.084,0.034,12.011-1.083c3.83-1.09,7.368-3.125,10.185-5.945   c4.917-4.923,7.012-11.595,7.147-18.424C156.652,105.97,157.15,83.41,156.522,60.872z M149.755,128.416   c-0.257,5.882-2.43,11.935-7.505,15.62c-2.945,2.138-6.718,3.338-10.342,3.502c-3.773,0.172-7.539,0.333-11.316,0.345   c-8.728,0.03-17.45-0.391-26.184-0.283c-8.811,0.108-17.638,0.13-26.449,0.017c-2.228-0.029-4.417-0.464-6.64-0.506   c-2.071-0.039-4.16,0.116-6.226,0.25c-4.463,0.289-8.92,0.68-13.393,0.799c-8.357,0.221-17.416,0.446-24.492-4.637   c-5.479-3.936-9.285-10.185-9.475-17.011c-0.238-8.512,0.401-17.087,0.826-25.586c0.446-8.911,1.053-17.822,1.024-26.746   C9.554,64.949,9.525,55.72,9.495,46.49c-0.015-4.642-0.03-9.284-0.045-13.926c-0.008-2.608-0.108-5.225,0.083-7.827   c1.029-7.841,7.872-14.452,15.375-16.396c2.825-0.732,5.87-0.652,8.774-0.677c4.591-0.04,9.18-0.043,13.771-0.029   c9.211,0.028,18.422,0.102,27.633,0.139c9.023,0.037,18.044,0.004,27.066-0.078c8.884-0.081,17.808-0.477,26.69-0.13   c8.022,0.313,15.414,4.396,18.654,11.958c1.629,3.801,1.734,7.793,1.98,11.855c0.27,4.47,0.512,8.947,0.686,13.422   C151.245,72.644,150.293,100.57,149.755,128.416z"/><path d="M128.937,83.139c-1.856-0.004-3.711,0.001-5.566,0.043c-1.732,0.04-3.464,0.079-5.197,0.119   c-1.389,0.031-2.777,0.068-4.166,0.091c-1.167,0.019-2.408,0.148-3.563-0.018c-1.37-0.192-1.115-1.562-1.054-2.679   c0.223-4.077,0.576-8.311,0.176-12.389c-0.758-7.725-8.045-12.959-15.571-12.498c-6.691,0.41-12.443,5.098-13.549,11.837   c-0.667,4.059-0.228,8.533-0.229,12.636c0,2.698,0.001,5.396,0.002,8.094c0.001,3.355,0.002,6.711,0.003,10.066   c0,0.695,0.001,1.39,0.002,2.085c0.001,1.036-1.606,1.56-1.873,0.335c0.086-0.016-0.03-5.322-0.03-5.639   c-0.002-6.057-0.004-12.114-0.006-18.171c0.054-5.546,0.111-11.091,0.16-16.637c0.03-3.411,0.509-7.231-0.608-10.508   c-2.237-6.56-9.027-10.583-15.873-9.725c-6.529,0.78-12.189,5.629-12.944,12.335c-0.398,3.536-0.115,7.28-0.118,10.836   c-0.002,2.858-0.005,5.716-0.008,8.574c-0.002,2.076-0.004,4.152-0.005,6.229c-0.001,1.196,0.42,4.214-0.276,4.836   c-0.192,0.527-3.262,0.284-3.721,0.297c-1.386,0.039-2.763,0.188-4.146,0.275c-1.282,0.078-2.563,0.052-3.846,0.036   c-2.622-0.034-5.245-0.057-7.868-0.111c-1.5-0.031-4.226-0.652-4.7,1.408c-0.136,0.59-0.07,1.271-0.084,1.867   c-0.024,0.97-0.047,1.939-0.071,2.909c-0.038,1.548-0.286,3.342-0.006,4.87c0.336,1.83,2.126,1.699,3.526,1.696   c6.709-0.012,13.42,0.015,20.13-0.057c7.215-0.077,13.749-4.902,14.687-12.323c0.25-1.981,0.019-4.074-0.154-6.063   c-0.245-2.803-0.509-5.602-0.61-8.416c-0.129-3.574-0.119-7.176-0.03-10.751c0.023-0.93,0.046-1.861,0.069-2.791   c0.017-0.699-0.107-1.685,0.171-2.328c0.699-1.621,3.102-1.093,3.041,0.672c0.061,0.843-0.027,1.725-0.046,2.571   c-0.232,10.123,0.028,20.281,0.082,30.408c0.015,2.819,0.03,5.638,0.045,8.458c0.024,4.454-0.362,9.028,2.315,12.889   c4.462,6.436,14.118,7.651,20.402,3.222c3.023-2.13,5.031-5.494,5.465-9.168c0.164-1.391,0.106-2.804,0.107-4.202   c0.002-9.511-0.222-19.324,0.025-28.634c-0.004-0.157,0.019-0.309,0.063-0.458c0.524-1.748,2.68-0.977,2.684,0.597   c0.002,0.647,0.002,1.294,0.002,1.942c0,1.611,0,3.223-0.002,4.834c-0.005,4.865-0.266,9.86,2.811,13.998   c3.76,5.056,9.677,5.357,15.402,5.352c3.204-0.003,6.408-0.015,9.612-0.024c1.675-0.005,3.349-0.052,5.023-0.069   c1.38-0.014,3.736,0.511,4.768-0.702c0.583-0.686,0.473-1.56,0.481-2.396c0.01-1.081,0.027-2.162,0.042-3.243   c0.021-1.52,0.446-3.625-0.106-5.079C133.456,82.503,130.561,83.143,128.937,83.139z M119.587,91.525   c-3.523,0.016-7.195,0.342-10.658-0.365c-3.557-0.726-7.471-2.351-8.769-5.983c-0.801-2.239-0.698-4.587-0.682-6.924   c0.01-1.548,0.005-3.096,0.057-4.644c0.059-1.747,0.45-4.013-0.105-5.698c-1.155-3.554-5.744-4.483-8.384-1.985   c-1.585,1.486-1.664,3.422-1.72,5.418c-0.112,6.623,0.005,13.25,0.036,19.874c0.015,3.076,0.038,6.152,0.037,9.229   c-0.001,2.459-0.594,4.834-2.274,6.75c-2.493,2.844-6.557,3.878-10.205,3.24c-3.547-0.62-6.71-3.003-7.818-6.5   c-0.598-1.833-0.488-3.815-0.524-5.719c-0.061-3.204-0.102-6.408-0.149-9.612c-0.087-5.925-0.144-11.851-0.216-17.777   c-0.01-0.853-0.02-1.705-0.031-2.558c-0.029-2.127,0.355-4.081,0.544-6.181c0.181-2.018,0.104-4.063,0.114-6.086   c0.004-0.862,0.099-1.792-0.041-2.648c-0.327-2.74-2.931-4.755-5.643-4.549c-3.121,0.239-4.893,2.88-4.889,5.809   c0.008,6.599,0.053,13.199,0.088,19.798c0.018,3.318,0.655,7.26-0.309,10.448c-1.088,3.597-4.3,6.228-7.977,6.844   c-1.676,0.291-3.455,0.143-5.153,0.148c-5.468,0.015-10.936,0.03-16.404,0.045c0.005-1.417,0.01-2.834,0.015-4.252   c5.556,0.013,11.113,0.01,16.668,0.057c3.591,0.03,7.32-0.342,8.011-4.578c0.328-2.012,0.183-4.128,0.211-6.159   c0.031-2.231,0.026-4.462,0.021-6.694c-0.008-4.125-0.191-8.253-0.341-12.375c-0.078-2.155-0.384-4.489,0.153-6.599   c0.881-3.593,4.118-6.136,7.642-6.897c5.792-1.382,11.971,2.064,13.226,7.717c0.565,3.794,0.143,7.835,0.113,11.668   c-0.034,4.423-0.068,8.845-0.103,13.268c-0.034,4.809-0.069,9.617-0.103,14.426c-0.01,1.464-0.021,2.928-0.031,4.392   c-0.02,2.809-0.639,6.436,1.564,8.578c1.912,1.859,4.958,2.002,7.037,0.34c2.078-1.661,1.993-3.953,1.992-6.323   c-0.002-2.975-0.01-5.949-0.015-8.924c-0.003-1.995,0.029-3.994-0.012-5.989c-0.041-2.052-0.695-4.02-0.71-6.076   c-0.008-1.05-0.001-2.1-0.001-3.15c-0.001-2.431-0.008-5.03,0.743-7.355c1.013-3.136,3.607-5.536,6.53-6.46   c5.301-1.676,12.064,0.587,13.796,6.284c0.481,1.583,0.411,3.194,0.396,4.824c-0.022,2.296-0.039,4.592-0.151,6.886   c-0.092,1.887-0.335,3.881,0.302,5.698c1.071,3.053,4.218,3.512,7.051,3.284c2.707-0.219,5.415-0.458,8.127-0.61   c3.18-0.179,6.221,0.011,9.33,0.291c-0.076,1.436-0.116,2.869-0.132,4.307C126.422,91.493,123.005,91.509,119.587,91.525z"/></g></svg>